<mxfile host="app.diagrams.net" agent="Mozilla/5.0 (Windows NT 10.0; Win64; x64) AppleWebKit/537.36 (KHTML, like Gecko) Chrome/134.0.0.0 Safari/537.36" version="26.1.3">
  <diagram name="Page-1" id="dXsjn_nKDdSTrqFDXljG">
    <mxGraphModel dx="1844" dy="1211" grid="0" gridSize="10" guides="1" tooltips="1" connect="1" arrows="1" fold="1" page="0" pageScale="1" pageWidth="850" pageHeight="1100" math="0" shadow="0">
      <root>
        <mxCell id="0" />
        <mxCell id="1" parent="0" />
        <mxCell id="urO7m1yxmW6qmhDO_XkI-2" value="User" style="shape=umlActor;verticalLabelPosition=bottom;verticalAlign=top;html=1;outlineConnect=0;fontFamily=Times New Roman;fontStyle=1;fontSize=18;" vertex="1" parent="1">
          <mxGeometry x="-238" y="-48" width="60" height="100" as="geometry" />
        </mxCell>
        <mxCell id="urO7m1yxmW6qmhDO_XkI-3" value="Admin" style="shape=umlActor;verticalLabelPosition=bottom;verticalAlign=top;html=1;outlineConnect=0;fontFamily=Times New Roman;fontStyle=1;fontSize=18;" vertex="1" parent="1">
          <mxGeometry x="377" y="142" width="60" height="100" as="geometry" />
        </mxCell>
        <mxCell id="urO7m1yxmW6qmhDO_XkI-4" value="" style="swimlane;startSize=0;fontFamily=Times New Roman;fontStyle=1;fontSize=18;" vertex="1" parent="1">
          <mxGeometry x="-120" y="-193" width="411" height="868" as="geometry" />
        </mxCell>
        <mxCell id="urO7m1yxmW6qmhDO_XkI-5" value="Register/Login" style="ellipse;whiteSpace=wrap;html=1;fontFamily=Times New Roman;fontStyle=1;fontSize=18;fillColor=#fff2cc;strokeColor=#d6b656;" vertex="1" parent="urO7m1yxmW6qmhDO_XkI-4">
          <mxGeometry x="108" y="26" width="185" height="74" as="geometry" />
        </mxCell>
        <mxCell id="urO7m1yxmW6qmhDO_XkI-8" value="Search Books" style="ellipse;whiteSpace=wrap;html=1;fontFamily=Times New Roman;fontStyle=1;fontSize=18;fillColor=#fff2cc;strokeColor=#d6b656;" vertex="1" parent="urO7m1yxmW6qmhDO_XkI-4">
          <mxGeometry x="105" y="576" width="185" height="74" as="geometry" />
        </mxCell>
        <mxCell id="urO7m1yxmW6qmhDO_XkI-9" value="Borrow Book" style="ellipse;whiteSpace=wrap;html=1;fontFamily=Times New Roman;fontStyle=1;fontSize=18;fillColor=#fff2cc;strokeColor=#d6b656;" vertex="1" parent="urO7m1yxmW6qmhDO_XkI-4">
          <mxGeometry x="105" y="211" width="185" height="74" as="geometry" />
        </mxCell>
        <mxCell id="urO7m1yxmW6qmhDO_XkI-10" value="Return Book" style="ellipse;whiteSpace=wrap;html=1;fontFamily=Times New Roman;fontStyle=1;fontSize=18;fillColor=#fff2cc;strokeColor=#d6b656;" vertex="1" parent="urO7m1yxmW6qmhDO_XkI-4">
          <mxGeometry x="105" y="297" width="185" height="74" as="geometry" />
        </mxCell>
        <mxCell id="urO7m1yxmW6qmhDO_XkI-11" value="View Borrow History" style="ellipse;whiteSpace=wrap;html=1;fontFamily=Times New Roman;fontStyle=1;fontSize=18;fillColor=#fff2cc;strokeColor=#d6b656;" vertex="1" parent="urO7m1yxmW6qmhDO_XkI-4">
          <mxGeometry x="108" y="385" width="185" height="74" as="geometry" />
        </mxCell>
        <mxCell id="urO7m1yxmW6qmhDO_XkI-18" value="Add Books" style="ellipse;whiteSpace=wrap;html=1;fontFamily=Times New Roman;fontStyle=1;fontSize=18;fillColor=#fff2cc;strokeColor=#d6b656;" vertex="1" parent="urO7m1yxmW6qmhDO_XkI-4">
          <mxGeometry x="105" y="474" width="185" height="74" as="geometry" />
        </mxCell>
        <mxCell id="urO7m1yxmW6qmhDO_XkI-19" value="Remove Books" style="ellipse;whiteSpace=wrap;html=1;fontFamily=Times New Roman;fontStyle=1;fontSize=18;fillColor=#fff2cc;strokeColor=#d6b656;" vertex="1" parent="urO7m1yxmW6qmhDO_XkI-4">
          <mxGeometry x="98" y="110" width="185" height="74" as="geometry" />
        </mxCell>
        <mxCell id="urO7m1yxmW6qmhDO_XkI-20" value="Generate Reports" style="ellipse;whiteSpace=wrap;html=1;fontFamily=Times New Roman;fontStyle=1;fontSize=18;fillColor=#fff2cc;strokeColor=#d6b656;" vertex="1" parent="urO7m1yxmW6qmhDO_XkI-4">
          <mxGeometry x="98" y="672" width="185" height="74" as="geometry" />
        </mxCell>
        <mxCell id="urO7m1yxmW6qmhDO_XkI-30" value="Send Notifications" style="ellipse;whiteSpace=wrap;html=1;fontFamily=Times New Roman;fontStyle=1;fontSize=18;fillColor=#fff2cc;strokeColor=#d6b656;" vertex="1" parent="urO7m1yxmW6qmhDO_XkI-4">
          <mxGeometry x="98" y="769" width="185" height="74" as="geometry" />
        </mxCell>
        <mxCell id="urO7m1yxmW6qmhDO_XkI-31" value="" style="endArrow=classic;html=1;rounded=0;exitX=1;exitY=1;exitDx=0;exitDy=0;exitPerimeter=0;entryX=0.032;entryY=0.621;entryDx=0;entryDy=0;entryPerimeter=0;fontFamily=Times New Roman;fontStyle=1;fontSize=18;" edge="1" parent="1" source="urO7m1yxmW6qmhDO_XkI-2" target="urO7m1yxmW6qmhDO_XkI-5">
          <mxGeometry width="50" height="50" relative="1" as="geometry">
            <mxPoint x="-223" y="218" as="sourcePoint" />
            <mxPoint x="-173" y="168" as="targetPoint" />
          </mxGeometry>
        </mxCell>
        <mxCell id="urO7m1yxmW6qmhDO_XkI-32" value="" style="endArrow=classic;html=1;rounded=0;entryX=0;entryY=0.5;entryDx=0;entryDy=0;fontFamily=Times New Roman;fontStyle=1;fontSize=18;" edge="1" parent="1" target="urO7m1yxmW6qmhDO_XkI-8">
          <mxGeometry width="50" height="50" relative="1" as="geometry">
            <mxPoint x="-186" y="55" as="sourcePoint" />
            <mxPoint x="4" y="-111" as="targetPoint" />
          </mxGeometry>
        </mxCell>
        <mxCell id="urO7m1yxmW6qmhDO_XkI-33" value="" style="endArrow=classic;html=1;rounded=0;entryX=0.031;entryY=0.664;entryDx=0;entryDy=0;entryPerimeter=0;exitX=1;exitY=1;exitDx=0;exitDy=0;exitPerimeter=0;fontFamily=Times New Roman;fontStyle=1;fontSize=18;" edge="1" parent="1" source="urO7m1yxmW6qmhDO_XkI-2" target="urO7m1yxmW6qmhDO_XkI-9">
          <mxGeometry width="50" height="50" relative="1" as="geometry">
            <mxPoint x="-176" y="65" as="sourcePoint" />
            <mxPoint x="-5" y="430" as="targetPoint" />
          </mxGeometry>
        </mxCell>
        <mxCell id="urO7m1yxmW6qmhDO_XkI-34" value="" style="endArrow=classic;html=1;rounded=0;entryX=0;entryY=0.5;entryDx=0;entryDy=0;exitX=1;exitY=1;exitDx=0;exitDy=0;exitPerimeter=0;fontFamily=Times New Roman;fontStyle=1;fontSize=18;" edge="1" parent="1" target="urO7m1yxmW6qmhDO_XkI-10">
          <mxGeometry width="50" height="50" relative="1" as="geometry">
            <mxPoint x="-168" y="62" as="sourcePoint" />
            <mxPoint x="1" y="77" as="targetPoint" />
          </mxGeometry>
        </mxCell>
        <mxCell id="urO7m1yxmW6qmhDO_XkI-35" value="" style="endArrow=classic;html=1;rounded=0;entryX=0;entryY=0.5;entryDx=0;entryDy=0;fontFamily=Times New Roman;fontStyle=1;fontSize=18;" edge="1" parent="1" target="urO7m1yxmW6qmhDO_XkI-11">
          <mxGeometry width="50" height="50" relative="1" as="geometry">
            <mxPoint x="-173" y="58" as="sourcePoint" />
            <mxPoint x="-5" y="151" as="targetPoint" />
          </mxGeometry>
        </mxCell>
        <mxCell id="urO7m1yxmW6qmhDO_XkI-36" value="" style="endArrow=classic;html=1;rounded=0;exitX=0;exitY=0.3333333333333333;exitDx=0;exitDy=0;exitPerimeter=0;entryX=1;entryY=0.5;entryDx=0;entryDy=0;fontFamily=Times New Roman;fontStyle=1;fontSize=18;" edge="1" parent="1" source="urO7m1yxmW6qmhDO_XkI-3" target="urO7m1yxmW6qmhDO_XkI-19">
          <mxGeometry width="50" height="50" relative="1" as="geometry">
            <mxPoint x="-168" y="62" as="sourcePoint" />
            <mxPoint x="4" y="-111" as="targetPoint" />
          </mxGeometry>
        </mxCell>
        <mxCell id="urO7m1yxmW6qmhDO_XkI-37" value="" style="endArrow=classic;html=1;rounded=0;exitX=0;exitY=0.3333333333333333;exitDx=0;exitDy=0;exitPerimeter=0;entryX=1;entryY=0.5;entryDx=0;entryDy=0;fontFamily=Times New Roman;fontStyle=1;fontSize=18;" edge="1" parent="1" target="urO7m1yxmW6qmhDO_XkI-18">
          <mxGeometry width="50" height="50" relative="1" as="geometry">
            <mxPoint x="387" y="185" as="sourcePoint" />
            <mxPoint x="173" y="-36" as="targetPoint" />
          </mxGeometry>
        </mxCell>
        <mxCell id="urO7m1yxmW6qmhDO_XkI-38" value="" style="endArrow=classic;html=1;rounded=0;exitX=0;exitY=0.3333333333333333;exitDx=0;exitDy=0;exitPerimeter=0;entryX=1;entryY=0.5;entryDx=0;entryDy=0;fontFamily=Times New Roman;fontStyle=1;fontSize=18;" edge="1" parent="1" target="urO7m1yxmW6qmhDO_XkI-20">
          <mxGeometry width="50" height="50" relative="1" as="geometry">
            <mxPoint x="397" y="195" as="sourcePoint" />
            <mxPoint x="180" y="328" as="targetPoint" />
          </mxGeometry>
        </mxCell>
        <mxCell id="urO7m1yxmW6qmhDO_XkI-39" value="" style="endArrow=classic;html=1;rounded=0;exitX=0;exitY=0.3333333333333333;exitDx=0;exitDy=0;exitPerimeter=0;entryX=0.955;entryY=0.267;entryDx=0;entryDy=0;entryPerimeter=0;fontFamily=Times New Roman;fontStyle=1;fontSize=18;" edge="1" parent="1" target="urO7m1yxmW6qmhDO_XkI-30">
          <mxGeometry width="50" height="50" relative="1" as="geometry">
            <mxPoint x="407" y="205" as="sourcePoint" />
            <mxPoint x="173" y="526" as="targetPoint" />
          </mxGeometry>
        </mxCell>
        <mxCell id="urO7m1yxmW6qmhDO_XkI-40" value="&lt;font style=&quot;font-size: 36px;&quot; face=&quot;Times New Roman&quot;&gt;&lt;b style=&quot;&quot;&gt;Library Management System&lt;/b&gt;&lt;/font&gt;" style="rounded=1;whiteSpace=wrap;html=1;fillColor=#fff2cc;strokeColor=#d6b656;" vertex="1" parent="1">
          <mxGeometry x="-299" y="-362" width="736" height="69" as="geometry" />
        </mxCell>
      </root>
    </mxGraphModel>
  </diagram>
</mxfile>
